<svg width="69" height="16" viewBox="0 0 69 16" fill="none" xmlns="http://www.w3.org/2000/svg">
<g clip-path="url(#clip0_26_92)">
<path fill-rule="evenodd" clip-rule="evenodd" d="M7.7652 2.08009C8.95837 2.43778 9.54957 3.68295 9.0858 4.86124C8.62203 6.03956 7.27865 6.70516 6.08548 6.34749C4.89227 5.98978 4.30107 4.74462 4.76484 3.56631C5.22861 2.388 6.57281 1.7224 7.7652 2.08009Z" fill="#00A988"/>
<path fill-rule="evenodd" clip-rule="evenodd" d="M0.00239563 8.70117C0.00250397 9.50059 0.106252 10.2973 0.311578 11.0756C1.00504 13.6854 2.88849 16 6.19041 16C8.0363 16 10.6567 14.72 11.9506 14.0711C12.6896 13.7013 12.9189 13.4347 14.5871 14.0537C18.3256 15.4404 23.6755 18.0391 23.7566 11.8361C23.7966 8.73993 21.4298 5.57619 18.7406 5.57619C16.4777 5.57619 14.5782 7.08553 11.8879 8.47361C9.08048 9.92248 6.40173 11.3504 4.19512 11.3504C1.09731 11.3504 0.00239563 9.65262 0.00239563 8.70117Z" fill="#A6FF00"/>
<path d="M4.19659 11.3504C5.83434 11.3504 7.7298 10.5646 9.74545 9.56767C6.97402 8.17567 4.87205 6.19167 2.67504 6.19167C2.31421 6.19967 1.95869 6.27101 1.62888 6.40152C1.29907 6.53203 1.00143 6.71919 0.753027 6.95228C0.504627 7.18537 0.310342 7.45981 0.181305 7.75985C0.0522689 8.05992 -0.00898246 8.37967 0.0010627 8.70083C0.00226107 9.65265 1.09717 11.3504 4.19659 11.3504Z" fill="#00A988"/>
<path fill-rule="evenodd" clip-rule="evenodd" d="M15.3536 2.78809e-06C16.9055 -0.00213055 18.2296 1.22026 18.3124 2.72995C18.395 4.23964 17.2035 5.46524 15.6515 5.46775C14.0996 5.47022 12.7755 4.24745 12.6928 2.73777C12.6101 1.22808 13.8016 0.00213612 15.3536 2.78809e-06Z" fill="#A6FF00"/>
<path style="mix-blend-mode:multiply" d="M14.5879 14.0536C17.6182 15.1768 21.7071 17.0972 23.1906 14.4803C23.539 13.8552 23.4335 11.7667 19.955 11.7667C16.4554 11.7667 13.0284 13.5029 11.9487 14.0707C12.6889 13.7013 12.9182 13.4346 14.5879 14.0536Z" fill="url(#paint0_linear_26_92)"/>
<path d="M30.7182 4.91174L30.3747 4.80934C30.222 4.76061 30.1649 4.78763 30.095 4.92276C30.0169 5.08974 29.8793 5.2293 29.7035 5.31992C29.5276 5.41058 29.3232 5.4473 29.1215 5.42443C28.4664 5.42443 28.1037 5.14923 28.1037 4.65323V3.46177C28.1037 2.964 28.4664 2.69591 29.1215 2.69591C29.3228 2.67179 29.5273 2.70752 29.7033 2.79754C29.8794 2.88756 30.0171 3.02682 30.095 3.19369C30.1521 3.32311 30.2149 3.35013 30.3687 3.30675L30.7186 3.20435C30.8584 3.16133 30.9031 3.08027 30.852 2.9672C30.6039 2.36845 30.0251 2.06622 29.1215 2.06622C27.9575 2.06622 27.3024 2.59956 27.3024 3.46853V4.6497C27.3024 5.52898 27.9575 6.05734 29.1215 6.05734C30.0312 6.05734 30.61 5.75534 30.858 5.15138C30.871 5.12778 30.8776 5.10181 30.8772 5.07556C30.8769 5.0493 30.8696 5.02345 30.856 5.00014C30.8424 4.97683 30.8229 4.95669 30.7989 4.94134C30.775 4.92596 30.7473 4.91585 30.7182 4.91174Z" fill="#00A988"/>
<path d="M33.3273 3.0987C33.0705 3.07151 32.8102 3.1098 32.5768 3.20912C32.3434 3.30845 32.1466 3.46473 32.0091 3.65978C31.9392 3.76643 31.9775 3.84858 32.1174 3.90261L32.3718 3.99436C32.518 4.0377 32.55 4.02669 32.6455 3.91363C32.723 3.82367 32.825 3.75272 32.9419 3.70745C33.0587 3.66218 33.1865 3.64407 33.3134 3.6548C33.7715 3.6548 33.9493 3.83825 33.9493 4.18814V4.33781C33.5866 4.32145 33.3833 4.3108 33.3385 4.3108C32.2999 4.3108 31.8945 4.53727 31.8945 5.17905C31.8833 5.30247 31.9051 5.42647 31.9582 5.54087C32.0113 5.65527 32.0942 5.75683 32.2001 5.8372C32.5363 6.01192 32.9259 6.08745 33.3134 6.05301C33.7014 6.06843 34.0893 6.02098 34.4582 5.9129C34.6364 5.84821 34.6871 5.79418 34.6871 5.60538V4.20981C34.6887 3.47097 34.2369 3.0987 33.3273 3.0987ZM33.9509 5.418C33.9509 5.45567 33.9253 5.47738 33.881 5.49338C33.671 5.52549 33.4581 5.53989 33.2451 5.5364C32.7809 5.5364 32.6459 5.41763 32.6459 5.17516C32.6459 4.93763 32.7984 4.82458 33.2566 4.82458C33.2758 4.82458 33.5047 4.83523 33.9501 4.8516L33.9509 5.418Z" fill="#00A988"/>
<path d="M37.627 3.09872H37.4233C37.0219 3.09868 36.6229 3.15323 36.2401 3.2605C36.0363 3.33161 35.992 3.39525 35.992 3.56805V5.80804C35.992 5.93215 36.0427 5.97517 36.1893 5.97517H36.5393C36.6855 5.97517 36.7302 5.93215 36.7302 5.80804V3.80164C36.7291 3.7936 36.7298 3.78542 36.7325 3.77768C36.7352 3.76993 36.7397 3.76277 36.7457 3.75666C36.7517 3.75055 36.759 3.7456 36.7673 3.74222C36.7756 3.73884 36.7846 3.73702 36.7937 3.73695C36.9908 3.69037 37.1942 3.66859 37.3981 3.67222H37.627C37.7732 3.67222 37.8239 3.6292 37.8239 3.50512V3.26796C37.8239 3.13641 37.7732 3.09872 37.627 3.09872Z" fill="#00A988"/>
<path d="M40.6608 3.17943H39.9359V2.69409C39.9359 2.57 39.8851 2.53232 39.7385 2.53232H39.395C39.2488 2.53232 39.198 2.57 39.198 2.69409V3.17943H38.7586C38.6124 3.17943 38.5677 3.21711 38.5677 3.34121V3.5901C38.5677 3.71418 38.6124 3.7572 38.7586 3.7572H39.198V4.86298C39.1756 5.03302 39.1934 5.20535 39.2504 5.36884C39.3073 5.53237 39.4022 5.68346 39.5288 5.81233C39.858 6.0132 40.2595 6.09775 40.6549 6.04946C40.8075 6.04415 40.8586 6.00644 40.8586 5.87702V5.62815C40.8586 5.49873 40.8079 5.46102 40.6549 5.46102C40.4564 5.48171 40.256 5.43967 40.0888 5.34226C40.0274 5.27175 39.9824 5.19113 39.9562 5.10502C39.93 5.01891 39.9232 4.92902 39.9362 4.84058V3.75647H40.6612C40.8075 3.75647 40.8586 3.71313 40.8586 3.58938V3.3405C40.8582 3.21748 40.8059 3.17943 40.6608 3.17943Z" fill="#00A988"/>
<path d="M42.3595 2.77511H42.5689C42.5848 2.77723 42.6008 2.77605 42.6159 2.77165C42.631 2.76725 42.6444 2.75976 42.6555 2.74979C42.6669 2.73981 42.6751 2.72764 42.68 2.71425C42.6849 2.70086 42.6861 2.68663 42.6836 2.67271C42.6836 2.53796 42.7347 2.46756 42.8363 2.46756C42.9707 2.48643 43.0964 2.53883 43.1989 2.61868C43.3295 2.71257 43.4896 2.76733 43.6574 2.77511C44.0326 2.77511 44.198 2.60267 44.198 2.17067C44.198 2.09956 44.158 2.06827 44.0783 2.06827H43.8746C43.7917 2.06827 43.7546 2.10063 43.7546 2.17067C43.7546 2.30543 43.7039 2.37547 43.6084 2.37547C43.4761 2.35241 43.3532 2.29841 43.252 2.21902C43.1132 2.1242 42.9437 2.07128 42.769 2.06792C42.4191 2.06792 42.2406 2.24036 42.2406 2.67236C42.2382 2.74276 42.2766 2.77511 42.3595 2.77511Z" fill="#00A988"/>
<path d="M43.2508 3.0987C42.9935 3.07151 42.7335 3.1098 42.4999 3.20912C42.2668 3.30845 42.07 3.46473 41.9324 3.65978C41.8626 3.76643 41.9006 3.84858 42.0406 3.90261L42.295 3.99436C42.4411 4.0377 42.4734 4.02669 42.5685 3.91363C42.6465 3.8237 42.7482 3.75276 42.8649 3.70749C42.9821 3.66221 43.1099 3.6441 43.2365 3.6548C43.695 3.6548 43.8726 3.83825 43.8726 4.18814V4.33781C43.5096 4.32145 43.3067 4.3108 43.2618 4.3108C42.2231 4.3108 41.8177 4.53727 41.8177 5.17905C41.8067 5.30243 41.8283 5.4264 41.8814 5.54083C41.9344 5.65523 42.0173 5.7568 42.1231 5.8372C42.4591 6.01189 42.849 6.08745 43.2361 6.05301C43.6243 6.06843 44.0122 6.02098 44.3809 5.9129C44.4568 5.89854 44.5234 5.85825 44.5658 5.80076C44.6087 5.74327 44.6246 5.67309 44.6099 5.60538V4.20981C44.612 3.47097 44.16 3.0987 43.2508 3.0987ZM43.8742 5.418C43.8742 5.45567 43.8485 5.47738 43.8044 5.49338C43.5941 5.52549 43.3814 5.53989 43.1683 5.5364C42.7041 5.5364 42.5689 5.41763 42.5689 5.17516C42.5689 4.93763 42.7216 4.82458 43.1797 4.82458C43.1989 4.82458 43.428 4.83523 43.8734 4.8516L43.8742 5.418Z" fill="#00A988"/>
<path d="M47.2834 3.09872C46.3484 3.09872 45.8205 3.50335 45.8205 4.1775V4.97571C45.8205 5.65124 46.3484 6.05444 47.2834 6.05444C48.2249 6.05444 48.7532 5.64982 48.7532 4.97571V4.1775C48.7528 3.50335 48.2249 3.09872 47.2834 3.09872ZM48.015 4.97571C48.015 5.29924 47.7476 5.48804 47.2834 5.48804C46.8196 5.48804 46.5587 5.29924 46.5587 4.97571V4.1775C46.5587 3.84859 46.8196 3.66513 47.2834 3.66513C47.7476 3.66513 48.015 3.84859 48.015 4.1775V4.97571Z" fill="#00A988"/>
<path d="M54.5729 1.98224H54.223C54.0768 1.98224 54.0323 2.02561 54.0323 2.14934V3.16872C53.782 3.12591 53.5281 3.10213 53.2733 3.09761C52.3894 3.09761 51.9439 3.49121 51.9439 4.22472V4.96356C51.9439 5.69174 52.402 6.05298 53.3239 6.05298C53.7285 6.05614 54.1307 5.99781 54.5137 5.88054C54.7174 5.80945 54.768 5.75647 54.768 5.584V2.14828C54.7701 2.02561 54.719 1.98224 54.5729 1.98224ZM54.0327 5.36429C54.0323 5.37767 54.027 5.39061 54.018 5.40127C54.009 5.41192 53.9964 5.41978 53.9817 5.42367C53.7902 5.46494 53.5938 5.48487 53.3966 5.48305C52.9197 5.48305 52.6842 5.30527 52.6842 4.94367V4.2425C52.6842 3.85956 52.9259 3.67076 53.4154 3.67076C53.6232 3.6756 53.8302 3.69941 54.0327 3.74189V5.36429Z" fill="#00A988"/>
<path d="M58.6757 4.77622C58.8668 4.77622 58.9623 4.70087 58.9623 4.5444V4.21553C58.9623 3.56308 58.4597 3.09908 57.4925 3.09908C56.5339 3.09908 56.017 3.50904 56.017 4.26422V4.90069C56.017 5.60716 56.4881 6.0548 57.4803 6.0548C58.1482 6.0548 58.6063 5.88225 58.8546 5.53713C58.9497 5.41302 58.9244 5.32662 58.7782 5.2676L58.5557 5.1652C58.403 5.09411 58.3332 5.10585 58.2311 5.22993C58.1433 5.32985 58.0282 5.40836 57.8971 5.45807C57.7657 5.50782 57.6228 5.52716 57.4807 5.51436C57.0165 5.51436 56.7556 5.32556 56.7556 4.97498V4.77553L58.6757 4.77622ZM56.7547 4.17749C56.7547 3.82691 57.0156 3.62744 57.4925 3.62744C57.9759 3.62744 58.2242 3.82691 58.2242 4.17749V4.29622H56.7543L56.7547 4.17749Z" fill="#00A988"/>
<path d="M47.2348 7.7981C46.2443 7.79683 45.2595 7.93236 44.3156 8.19989C44.3156 9.09236 44.3156 12.8868 44.3156 13.4394C44.3156 14.5164 45.0141 15.3302 47.6043 15.3302C48.1595 15.3319 48.7099 15.2356 49.2231 15.0467C49.7363 14.8579 50.2022 14.5803 50.5941 14.23C50.9861 13.8797 51.296 13.4638 51.5058 13.0062C51.7161 12.5486 51.8219 12.0585 51.8178 11.5642C51.8182 9.57021 50.1373 7.7981 47.2348 7.7981ZM47.608 13.3448C46.6142 13.3661 46.4893 13.2026 46.4893 12.7194C46.4893 12.3283 46.4962 9.89272 46.4962 9.89272C46.7763 9.80574 47.0702 9.75847 47.3671 9.75261C48.8312 9.75261 49.6041 10.6308 49.6041 11.5304C49.6069 12.0061 49.3987 12.4636 49.0247 12.8035C48.6507 13.1433 48.1412 13.3381 47.6067 13.3455L47.608 13.3448Z" fill="#00A988"/>
<path d="M66.0461 10.7816C65.1144 10.5725 64.2329 10.4889 64.1773 10.1345C64.1373 9.89233 64.4648 9.68363 65.1397 9.68363C66.3621 9.65883 67.5686 9.93611 68.6248 10.4847V9.30494C68.6248 8.58531 67.7437 7.80487 65.4916 7.80487C62.9713 7.80487 61.9363 8.91953 61.9363 10.1661C61.9363 11.5627 63.0995 12.0353 64.606 12.3208C66.318 12.6451 66.6246 12.7805 66.6246 13.0291C66.6246 13.3715 66.053 13.4515 65.6631 13.4515C64.4411 13.4742 63.235 13.1971 62.178 12.6504C62.178 12.6504 62.1735 13.535 62.1727 13.8298C62.1727 14.5494 62.9933 15.3305 65.2005 15.3305C67.3415 15.3305 68.4182 14.5235 68.7273 13.61C69.5222 11.2644 66.6605 10.9195 66.0461 10.7816Z" fill="#00A988"/>
<path d="M39.078 7.79385C38.2405 7.79385 37.4218 8.01491 36.7255 8.42902C36.0292 8.84316 35.4865 9.43178 35.166 10.1204C34.8455 10.8091 34.7617 11.5669 34.9251 12.298C35.0884 13.0291 35.4917 13.7007 36.0839 14.2277C36.6761 14.7548 37.4305 15.1138 38.2519 15.2592C39.0733 15.4047 39.9246 15.33 40.6984 15.0448C41.4719 14.7595 42.1333 14.2764 42.5987 13.6567C43.0638 13.0368 43.3124 12.3082 43.3124 11.5628C43.3124 10.5632 42.8661 9.60454 42.072 8.89774C41.2779 8.19094 40.2009 7.79385 39.078 7.79385ZM39.078 13.3619C38.678 13.3619 38.2871 13.2563 37.9546 13.0585C37.622 12.8608 37.3629 12.5797 37.2098 12.2508C37.0568 11.9219 37.0167 11.56 37.0948 11.2109C37.1728 10.8618 37.3653 10.5411 37.6482 10.2894C37.9309 10.0377 38.2912 9.86625 38.6835 9.7968C39.0757 9.72735 39.4823 9.76298 39.8517 9.8992C40.2212 10.0355 40.537 10.2661 40.7592 10.5621C40.9815 10.8581 41.0999 11.2061 41.0999 11.562C41.0999 12.0394 40.8868 12.4972 40.5078 12.8347C40.1286 13.1722 39.6142 13.3619 39.078 13.3619Z" fill="#00A988"/>
<path d="M56.9532 7.79385C56.1158 7.79385 55.2972 8.01491 54.6006 8.42902C53.9045 8.84316 53.3615 9.43178 53.041 10.1204C52.7209 10.8091 52.6368 11.5669 52.8001 12.298C52.9634 13.0291 53.3668 13.7007 53.9592 14.2277C54.5512 14.7548 55.3057 15.1138 56.1272 15.2592C56.9483 15.4047 57.7999 15.33 58.5736 15.0448C59.3473 14.7595 60.0084 14.2764 60.4738 13.6567C60.9392 13.0368 61.1875 12.3082 61.1875 11.5628C61.1875 10.5632 60.7412 9.60454 59.9471 8.89774C59.153 8.19094 58.076 7.79385 56.9532 7.79385ZM56.9532 13.3619C56.5531 13.3619 56.1623 13.2563 55.8296 13.0585C55.4972 12.8608 55.238 12.5797 55.0849 12.2508C54.9318 11.9219 54.8917 11.56 54.9697 11.2109C55.0481 10.8618 55.2404 10.5411 55.5234 10.2894C55.8063 10.0377 56.1664 9.86625 56.5588 9.7968C56.9507 9.72735 57.3574 9.76298 57.7269 9.8992C58.0964 10.0355 58.4124 10.2661 58.6345 10.5621C58.8566 10.8581 58.9754 11.2061 58.9754 11.562C58.9754 12.0394 58.7623 12.4972 58.383 12.8347C58.0037 13.1722 57.4892 13.3619 56.9532 13.3619Z" fill="#00A988"/>
<path d="M34.8587 7.39313C34.8587 7.39313 29.6725 7.95596 27.9449 8.14865C27.7452 8.17142 27.5617 8.25822 27.4287 8.3928C27.2957 8.52738 27.2225 8.70047 27.2227 8.87967V9.73764H29.907V14.2475C29.907 14.9942 30.4415 15.2619 31.1278 15.2619H32.1264V9.73764H33.6188C33.7814 9.73764 33.9424 9.70913 34.0927 9.65375C34.2429 9.59836 34.3794 9.51716 34.4944 9.4148C34.6094 9.31247 34.7006 9.19095 34.7628 9.05724C34.8251 8.92349 34.8571 8.78015 34.8571 8.63542L34.8587 7.39313Z" fill="#00A988"/>
</g>
<defs>
<linearGradient id="paint0_linear_26_92" x1="12.1421" y1="15.019" x2="17.2984" y2="8.54772" gradientUnits="userSpaceOnUse">
<stop stop-color="#00A988" stop-opacity="0.698"/>
<stop offset="1" stop-color="#00A988" stop-opacity="0.051"/>
</linearGradient>
<clipPath id="clip0_26_92">
<rect width="69" height="16" fill="white"/>
</clipPath>
</defs>
</svg>
